<mxfile host="app.diagrams.net" modified="2024-05-16T12:19:39.004Z" agent="Mozilla/5.0 (Macintosh; Intel Mac OS X 10_15_7) AppleWebKit/537.36 (KHTML, like Gecko) Chrome/124.0.0.0 Safari/537.36" etag="1optb-Lw8JT6zNaoroJk" version="24.4.2" type="github">
  <diagram name="페이지-1" id="xNRx743p3D9nlhZjStxy">
    <mxGraphModel dx="880" dy="686" grid="1" gridSize="10" guides="1" tooltips="1" connect="1" arrows="1" fold="1" page="1" pageScale="1" pageWidth="827" pageHeight="1169" math="0" shadow="0">
      <root>
        <mxCell id="0" />
        <mxCell id="1" parent="0" />
        <mxCell id="zIhg7aRgwwn2gpFIMh1_-1" value="&lt;font style=&quot;font-size: 19px;&quot;&gt;User&lt;/font&gt;" style="ellipse;whiteSpace=wrap;html=1;" parent="1" vertex="1">
          <mxGeometry x="80" y="320" width="120" height="80" as="geometry" />
        </mxCell>
        <mxCell id="T2J91JAu5CBQ3GHST86E-2" value="" style="endArrow=classic;html=1;rounded=0;entryX=0;entryY=0.75;entryDx=0;entryDy=0;exitX=1;exitY=0;exitDx=0;exitDy=0;" edge="1" parent="1" source="zIhg7aRgwwn2gpFIMh1_-1" target="T2J91JAu5CBQ3GHST86E-3">
          <mxGeometry width="50" height="50" relative="1" as="geometry">
            <mxPoint x="180" y="300" as="sourcePoint" />
            <mxPoint x="230" y="250" as="targetPoint" />
          </mxGeometry>
        </mxCell>
        <mxCell id="T2J91JAu5CBQ3GHST86E-3" value="&lt;font style=&quot;font-size: 17px;&quot;&gt;일정 추가&lt;/font&gt;" style="rounded=0;whiteSpace=wrap;html=1;fillColor=#d5e8d4;strokeColor=#82b366;" vertex="1" parent="1">
          <mxGeometry x="350" y="120" width="120" height="60" as="geometry" />
        </mxCell>
        <mxCell id="T2J91JAu5CBQ3GHST86E-4" value="&lt;span style=&quot;font-size: 17px;&quot;&gt;일정 목록 조회&lt;/span&gt;" style="rounded=0;whiteSpace=wrap;html=1;fillColor=#f8cecc;strokeColor=#b85450;" vertex="1" parent="1">
          <mxGeometry x="350" y="220" width="120" height="60" as="geometry" />
        </mxCell>
        <mxCell id="T2J91JAu5CBQ3GHST86E-5" value="&lt;font style=&quot;font-size: 17px;&quot;&gt;선택한 일정 조회&lt;/font&gt;" style="rounded=0;whiteSpace=wrap;html=1;fillColor=#f8cecc;strokeColor=#b85450;" vertex="1" parent="1">
          <mxGeometry x="350" y="320" width="120" height="60" as="geometry" />
        </mxCell>
        <mxCell id="T2J91JAu5CBQ3GHST86E-6" value="&lt;span style=&quot;font-size: 17px;&quot;&gt;선택한 일정 수정&lt;/span&gt;" style="rounded=0;whiteSpace=wrap;html=1;fillColor=#dae8fc;strokeColor=#6c8ebf;" vertex="1" parent="1">
          <mxGeometry x="350" y="420" width="120" height="60" as="geometry" />
        </mxCell>
        <mxCell id="T2J91JAu5CBQ3GHST86E-7" value="&lt;font style=&quot;font-size: 17px;&quot;&gt;선택한 일정 삭제&lt;/font&gt;" style="rounded=0;whiteSpace=wrap;html=1;fillColor=#ffcccc;strokeColor=#36393d;" vertex="1" parent="1">
          <mxGeometry x="350" y="524.5" width="120" height="60" as="geometry" />
        </mxCell>
        <mxCell id="T2J91JAu5CBQ3GHST86E-10" value="" style="endArrow=classic;html=1;rounded=0;exitX=0.95;exitY=0.306;exitDx=0;exitDy=0;exitPerimeter=0;" edge="1" parent="1" source="zIhg7aRgwwn2gpFIMh1_-1">
          <mxGeometry width="50" height="50" relative="1" as="geometry">
            <mxPoint x="200" y="342" as="sourcePoint" />
            <mxPoint x="340" y="260" as="targetPoint" />
          </mxGeometry>
        </mxCell>
        <mxCell id="T2J91JAu5CBQ3GHST86E-11" value="" style="endArrow=classic;html=1;rounded=0;exitX=1;exitY=0.5;exitDx=0;exitDy=0;" edge="1" parent="1" source="zIhg7aRgwwn2gpFIMh1_-1" target="T2J91JAu5CBQ3GHST86E-5">
          <mxGeometry width="50" height="50" relative="1" as="geometry">
            <mxPoint x="390" y="370" as="sourcePoint" />
            <mxPoint x="440" y="320" as="targetPoint" />
          </mxGeometry>
        </mxCell>
        <mxCell id="T2J91JAu5CBQ3GHST86E-12" value="" style="endArrow=classic;html=1;rounded=0;exitX=0.767;exitY=0.894;exitDx=0;exitDy=0;entryX=0;entryY=0.5;entryDx=0;entryDy=0;exitPerimeter=0;" edge="1" parent="1" source="zIhg7aRgwwn2gpFIMh1_-1" target="T2J91JAu5CBQ3GHST86E-6">
          <mxGeometry width="50" height="50" relative="1" as="geometry">
            <mxPoint x="170" y="387" as="sourcePoint" />
            <mxPoint x="320" y="380" as="targetPoint" />
          </mxGeometry>
        </mxCell>
        <mxCell id="T2J91JAu5CBQ3GHST86E-13" value="" style="endArrow=classic;html=1;rounded=0;exitX=0.5;exitY=1;exitDx=0;exitDy=0;entryX=0;entryY=0.5;entryDx=0;entryDy=0;" edge="1" parent="1" source="zIhg7aRgwwn2gpFIMh1_-1" target="T2J91JAu5CBQ3GHST86E-7">
          <mxGeometry width="50" height="50" relative="1" as="geometry">
            <mxPoint x="390" y="370" as="sourcePoint" />
            <mxPoint x="440" y="320" as="targetPoint" />
          </mxGeometry>
        </mxCell>
        <mxCell id="T2J91JAu5CBQ3GHST86E-14" value="" style="swimlane;startSize=0;fillColor=#dae8fc;strokeColor=#6c8ebf;" vertex="1" parent="1">
          <mxGeometry x="280" y="50" width="250" height="600" as="geometry" />
        </mxCell>
        <mxCell id="T2J91JAu5CBQ3GHST86E-15" value="&lt;font style=&quot;font-size: 30px;&quot;&gt;일정 관리&lt;/font&gt;" style="text;html=1;align=center;verticalAlign=middle;whiteSpace=wrap;rounded=0;" vertex="1" parent="1">
          <mxGeometry x="330" y="20" width="150" height="30" as="geometry" />
        </mxCell>
      </root>
    </mxGraphModel>
  </diagram>
</mxfile>
